<?xml version="1.0" encoding="UTF-8"?>
<!DOCTYPE svg PUBLIC "-//W3C//DTD SVG 1.1//EN" "http://www.w3.org/Graphics/SVG/1.1/DTD/svg11.dtd">
<!-- Creator: CorelDRAW X6 -->
<svg xmlns="http://www.w3.org/2000/svg" xml:space="preserve" width="6.59411in" height="1.41224in" version="1.1" style="shape-rendering:geometricPrecision; text-rendering:geometricPrecision; image-rendering:optimizeQuality; fill-rule:evenodd; clip-rule:evenodd"
viewBox="0 0 6366 1363"
 xmlns:xlink="http://www.w3.org/1999/xlink">
 <defs>
  <style type="text/css">
   <![CDATA[
    .fil1 {fill:#40D6E3}
    .fil0 {fill:#4C7AEC}
    .fil3 {fill:#373435;fill-rule:nonzero}
    .fil2 {fill:#FEFEFE;fill-rule:nonzero}
   ]]>
  </style>
 </defs>
 <g id="Layer_x0020_1">
  <metadata id="CorelCorpID_0Corel-Layer"/>
  <path class="fil0" d="M573 0l1839 0c150,0 273,123 273,273l0 378c0,150 -123,273 -273,273l-1739 0c-27,1 -35,2 -59,10l-615 236c92,-113 184,-226 276,-339 21,-26 25,-47 25,-83l0 -475c0,-150 123,-273 273,-273z"/>
  <path class="fil1" d="M5168 193l-2109 0c-150,0 -273,123 -273,273l0 378c0,150 123,273 273,273l2009 0c27,1 35,2 59,10l615 236c-92,-113 -184,-226 -276,-339 -21,-26 -25,-47 -25,-83l0 -475c0,-150 -123,-273 -273,-273z"/>
  <path class="fil2" d="M956 336c42,0 77,13 103,38 26,25 39,63 39,113l0 173 0 0c0,12 -10,23 -23,23l-53 0c-13,0 -23,-10 -23,-23l0 -34c0,-1 0,-1 0,-2l0 -121c0,-27 -6,-47 -18,-61 -12,-13 -29,-20 -51,-20 -25,0 -45,8 -60,23 -15,15 -22,38 -22,69l0 84 0 62 0 0c0,13 -10,23 -23,23l-53 0c-13,0 -23,-10 -23,-23l0 0 0 -403 0 0 0 -15c0,-17 14,-30 30,-30l39 0c17,0 30,14 30,30l0 15 0 17 0 102c13,-13 29,-23 48,-30 19,-7 39,-10 61,-10zm467 259c28,-17 38,-8 55,12l10 12c8,10 6,23 -4,31l0 0c0,0 -1,1 -1,1 -5,4 -10,7 -15,10 0,0 -1,1 -1,1 -28,17 -64,26 -106,26 -39,0 -73,-8 -102,-23 -30,-15 -53,-36 -69,-63 -16,-27 -24,-57 -24,-91 0,-33 8,-64 24,-91 16,-27 38,-48 65,-63 28,-15 59,-23 93,-23 33,0 64,7 91,22 27,14 48,35 64,62 15,27 23,58 23,94 0,1 -1,10 -2,27l-259 0c5,21 16,38 33,50 17,12 39,18 65,18 18,0 34,-3 47,-8 4,-2 8,-3 12,-6zm383 -384l53 0c13,0 23,10 23,23l0 8 0 0 0 410 0 0 0 8c0,13 -10,23 -23,23l-53 0c-13,0 -23,-10 -23,-23l0 -34c0,-1 0,-1 0,-2l0 -354c0,-1 0,-1 0,-2l0 -34c0,-13 10,-23 23,-23zm-191 0l53 0c13,0 23,10 23,23l0 7 0 0 0 410 0 0 0 8c0,13 -10,23 -23,23l-53 0c-13,0 -23,-10 -23,-23l0 -34c0,-1 0,-1 0,-2l0 -354c0,-1 0,-1 0,-2l0 -34c0,-13 10,-23 23,-23zm-266 199c-22,0 -41,6 -57,19 -15,13 -25,30 -28,52l168 0c-3,-22 -13,-39 -28,-52 -15,-13 -34,-19 -56,-19zm789 277c-36,0 -68,-8 -97,-23 -29,-15 -51,-36 -67,-63 -16,-27 -24,-57 -24,-91 0,-34 8,-64 24,-91 16,-27 38,-48 67,-63 29,-15 61,-23 97,-23 36,0 68,8 97,23 28,15 51,36 67,63 16,27 24,57 24,91 0,34 -8,64 -24,91 -16,27 -38,48 -67,63 -28,15 -61,23 -97,23zm0 -81c25,0 46,-9 63,-26 16,-17 24,-40 24,-69 0,-29 -8,-52 -24,-69 -16,-17 -37,-26 -63,-26 -25,0 -46,9 -63,26 -17,17 -25,40 -25,69 0,29 8,52 25,69 17,17 37,26 63,26z"/>
  <path class="fil2" d="M4646 599c13,-8 25,-13 39,-21 11,-7 14,-20 6,-31l-1 -1 0 0c-12,-17 -27,-31 -46,-42 -18,-10 -39,-17 -61,-21 -6,-2 -17,-3 -33,-3 -36,0 -69,8 -98,23 -29,15 -52,36 -68,63 -16,26 -24,57 -24,90l0 1 0 1c0,34 8,64 24,91 4,6 8,12 12,16 15,19 33,34 56,45 29,15 62,23 98,23 36,0 67,-8 94,-23 19,-11 35,-25 46,-42l0 0 1 -1c8,-10 5,-24 -6,-31 -13,-8 -26,-14 -39,-21 -9,-5 -21,-4 -29,3 -1,1 -2,1 -3,2l0 0c0,0 -1,1 -1,1 -16,20 -38,30 -65,30 -26,0 -47,-8 -64,-25 -4,-4 -7,-8 -10,-12 -6,-10 -11,-21 -13,-33l0 -1 0 -1 0 -1c-1,-7 -2,-14 -2,-22l0 0 0 -1c0,-29 9,-51 25,-68 17,-17 38,-25 64,-25 27,0 49,10 65,30 0,0 1,1 1,1l0 0c1,1 2,2 3,2 8,7 20,8 29,3zm375 -113l51 0c12,0 17,10 13,21l-145 341c-16,39 -35,67 -58,83 -23,16 -51,24 -84,24 -18,0 -35,-3 -53,-8 -12,-4 -22,-8 -30,-14 0,0 -1,-1 -1,-1 -10,-9 -7,-19 3,-36l11 -21c5,-10 16,-14 26,-10 1,1 9,4 11,5 10,4 20,6 30,6 14,0 25,-3 33,-10 8,-7 16,-17 23,-33l1 -3 -138 -322c-5,-12 0,-22 12,-22l58 0c12,0 26,10 31,22 30,69 58,140 87,210 29,-70 59,-141 88,-211l0 0c6,-11 19,-21 31,-21zm-729 311l0 8c0,13 -10,23 -23,23l-53 0c-13,0 -23,-10 -23,-23l0 -34 0 -1 0 -226 0 -1 0 -34c0,-13 10,-23 23,-23l53 0c13,0 23,10 23,23l0 23 0 0 0 266 0 0zm-191 0l0 7c0,13 -10,23 -23,23l-53 0c-13,0 -23,-10 -23,-23l0 -7 0 0 0 -411 0 0 0 -8c0,-13 10,-23 23,-23l53 0c13,0 23,10 23,23l0 8 0 0 0 411 0 0zm-931 -311l49 0c13,0 23,10 23,23l0 8 0 9c25,-30 60,-44 107,-44 32,0 61,7 87,22 26,15 46,35 61,62 15,26 22,57 22,92 0,35 -7,66 -22,92 -15,26 -35,47 -61,62 -26,15 -55,22 -87,22 -44,0 -78,-14 -103,-41l0 102 0 0 0 34c0,13 -10,23 -23,23l-53 0c-13,0 -23,-10 -23,-23l0 -7 0 0 0 -404 0 0 0 -8c0,-13 10,-23 23,-23zm162 266c25,0 46,-9 63,-26 16,-17 24,-40 24,-69 0,-29 -8,-52 -24,-69 -16,-17 -37,-26 -63,-26 -25,0 -46,9 -63,26 -16,17 -24,40 -24,69 0,29 8,52 24,69 16,17 37,26 63,26zm416 81c-36,0 -68,-8 -97,-23 -29,-15 -51,-36 -67,-63 -16,-27 -24,-57 -24,-91 0,-34 8,-64 24,-91 16,-27 38,-48 67,-63 29,-15 61,-23 97,-23 36,0 68,8 97,23 28,15 51,36 67,63 16,27 24,57 24,91 0,34 -8,64 -24,91 -16,27 -38,48 -67,63 -28,15 -61,23 -97,23zm0 -81c25,0 46,-9 63,-26 16,-17 24,-40 24,-69 0,-29 -8,-52 -24,-69 -16,-17 -37,-26 -63,-26 -25,0 -46,9 -63,26 -17,17 -25,40 -25,69 0,29 8,52 25,69 17,17 37,26 63,26zm494 -313c-18,0 -33,-5 -44,-16 -11,-11 -17,-24 -17,-39 0,-16 6,-29 17,-39 11,-11 26,-16 44,-16 18,0 33,5 44,15 11,10 17,23 17,38 0,17 -6,30 -17,41 -11,11 -26,16 -44,16z"/>
  <path class="fil3" d="M5624 989c-7,0 -14,-3 -19,-8 -5,-5 -8,-11 -8,-19 0,-8 3,-14 8,-19 5,-5 11,-7 19,-7 8,0 14,2 19,7 5,5 8,11 8,19 0,8 -3,14 -8,19 -5,5 -11,8 -19,8zm141 0c-18,0 -34,-4 -48,-11 -14,-8 -25,-18 -33,-31 -8,-13 -12,-29 -12,-46 0,-17 4,-32 12,-45 8,-13 19,-24 33,-31 14,-8 30,-11 48,-11 17,0 32,3 45,10 13,7 22,17 29,30l-31 18c-5,-8 -11,-14 -19,-18 -7,-4 -15,-6 -24,-6 -15,0 -27,5 -37,15 -10,10 -15,23 -15,39 0,16 5,29 15,39 10,10 22,15 37,15 9,0 17,-2 24,-6 7,-4 14,-10 19,-18l31 18c-7,13 -16,23 -29,30 -13,7 -28,10 -44,10zm183 0c-17,0 -33,-4 -47,-11 -14,-8 -25,-18 -33,-31 -8,-13 -12,-29 -12,-46 0,-17 4,-32 12,-45 8,-13 19,-24 33,-31 14,-8 30,-11 47,-11 18,0 33,4 47,11 14,8 25,18 33,31 8,13 12,28 12,45 0,17 -4,32 -12,46 -8,13 -19,24 -33,31 -14,8 -30,11 -47,11zm0 -34c15,0 27,-5 37,-15 10,-10 14,-23 14,-39 0,-16 -5,-29 -14,-39 -10,-10 -22,-15 -37,-15 -15,0 -27,5 -37,15 -10,10 -14,23 -14,39 0,16 5,29 14,39 10,10 22,15 37,15zm347 -142c22,0 39,6 51,19 13,13 19,31 19,56l0 98 -40 0 0 -93c0,-15 -3,-26 -10,-34 -7,-8 -16,-11 -29,-11 -14,0 -24,4 -33,13 -8,9 -12,22 -12,38l0 87 -40 0 0 -93c0,-15 -3,-26 -10,-34 -7,-8 -16,-11 -29,-11 -14,0 -25,4 -33,13 -8,9 -12,22 -12,38l0 87 -40 0 0 -172 38 0 0 22c6,-8 14,-14 24,-18 10,-4 20,-6 32,-6 13,0 24,2 34,7 10,5 18,12 24,21 7,-9 16,-16 27,-21 11,-5 23,-8 37,-8z"/>
 </g>
</svg>
